<svg xmlns="http://www.w3.org/2000/svg" viewBox="0 0 210.15 49.33"><path d="M64.58 24.66c0-8 4.37-12.8 10.63-12.8s10.68 4.87 10.68 12.8-4.4 13-10.68 13-10.63-5-10.63-13zm18 0c0-6.2-2.93-10-7.38-10s-7.37 3.83-7.37 10 2.93 10.26 7.37 10.26 7.4-4.03 7.4-10.26zm7.42-5.9h2.58l.27 2.13H93a9.53 9.53 0 0 1 5.89-2.59c4.75 0 7.3 3.7 7.3 9.42 0 6.27-3.76 10-8 10A8.57 8.57 0 0 1 93 35.56l.07 3.23V45H90zm12.92 9c0-4.06-1.37-6.8-4.87-6.8-1.56 0-3.1.88-4.94 2.5v9.7a7.29 7.29 0 0 0 4.52 1.94c3.04-.04 5.3-2.82 5.3-7.38zm5.85.23c0-6 4.06-9.73 8.28-9.73 4.7 0 7.37 3.38 7.37 8.67a11.61 11.61 0 0 1-.11 1.78h-12.46c.23 3.9 2.62 6.42 6.15 6.42a8.38 8.38 0 0 0 4.6-1.44l1.1 2a10.94 10.94 0 0 1-6.08 1.9c-4.94.1-8.85-3.52-8.85-9.6zm12.92-1.52c0-3.72-1.67-5.74-4.56-5.74-2.6 0-4.94 2.1-5.32 5.74zm6.3-7.7h2.58l.26 2.66h.16c1.75-1.75 3.65-3.12 6.2-3.12 3.88 0 5.62 2.5 5.62 7.22v11.7h-3.1V26c0-3.46-1.06-4.94-3.5-4.94-1.9 0-3.2 1-5 2.85v13.32H128zm25.3-6.47h3.58l8.43 24.92h-3.38l-2.36-7.6h-9.08l-2.4 7.6h-3.23zm-2 14.78h7.5l-1.18-3.8-2.5-8.4h-.15l-2.47 8.4zm16.6-14.78h14.36V15h-11.2v8.4h9.5v2.66h-9.5v11.17h-3.15zm17.82 0h3.15v24.92h-3.15zm7.22 21.7l1.9-2.2a9.75 9.75 0 0 0 6.87 3.12c3.27 0 5.2-1.64 5.2-4.07s-1.8-3.34-4.14-4.4l-3.57-1.55c-2.36-1-5.06-2.78-5.06-6.43 0-3.8 3.3-6.6 7.83-6.6a10.37 10.37 0 0 1 7.37 3.08l-1.7 2.07a8 8 0 0 0-5.64-2.37c-2.77 0-4.63 1.4-4.63 3.64 0 2.4 2.16 3.3 4.14 4.15l3.5 1.52c2.9 1.25 5.13 3 5.13 6.64 0 4-3.23 7.1-8.47 7.1a12 12 0 0 1-8.72-3.69z" fill="#1d1d1b"/><path d="M24.4 8a16.86 16.86 0 0 1 10.22 3.31A17.34 17.34 0 0 1 39 16c.38.6.3 1.1-.2 1.44a1 1 0 0 1-1.52-.36A14.63 14.63 0 0 0 25.17 10a14.59 14.59 0 0 0-5.29.7 14.06 14.06 0 0 0-6.15 4c-.74.82-1.37 1.74-2 2.63l-2.6 3.17a20.12 20.12 0 0 1-6.81 4.78 3.29 3.29 0 0 1-1.12.42A1 1 0 0 1 0 25.05a1.07 1.07 0 0 1 .61-1.25 32.61 32.61 0 0 0 3-1.52A19.52 19.52 0 0 0 6.73 20a19 19 0 0 0 3.47-4 18.35 18.35 0 0 1 5.72-5.58 15.43 15.43 0 0 1 5.71-2.14A16.2 16.2 0 0 1 24.4 8z" fill="#010101"/><path d="M45.2 23.48a24.9 24.9 0 0 1-1.9 9.65 35.5 35.5 0 0 1-3.58 6.72A38.23 38.23 0 0 1 37.35 43a1 1 0 1 1-1.46-1.27 35.27 35.27 0 0 0 3.62-5.2 32.45 32.45 0 0 0 2.78-6.37 28.1 28.1 0 0 0 .88-4.16 15.13 15.13 0 0 0 .14-2.22 16.91 16.91 0 0 0-1.2-6.43 17.71 17.71 0 0 0-4.67-6.5A21 21 0 0 0 32 7.26a.94.94 0 0 1-.29-1.67 1 1 0 0 1 1-.1 21 21 0 0 1 4.82 2.87 20.87 20.87 0 0 1 4.83 5.22 17.54 17.54 0 0 1 2.57 6.66 17.52 17.52 0 0 1 .28 3.24z" fill="#1d1d1b"/><path d="M24.74 19.72a5.12 5.12 0 0 1 4.9 4.16 5.81 5.81 0 0 1-.75 3.59 21.54 21.54 0 0 1-3.45 4.33l-2.56 2.74a.93.93 0 0 1-1.44.07 1 1 0 0 1 0-1.49l1.76-1.77a38.62 38.62 0 0 0 3.94-4.54 3.34 3.34 0 0 0 .68-3 3.17 3.17 0 0 0-2.54-2.31 3 3 0 0 0-3 1.17l-2.13 2.57q-1.65 2-3.33 4a18 18 0 0 1-5 4.19 54.47 54.47 0 0 1-5.9 2.97 13.79 13.79 0 0 1-1.68.6.9.9 0 0 1-1.08-.49 1 1 0 0 1 .71-1.26 23.75 23.75 0 0 0 8.5-4.2 28 28 0 0 0 4.57-4.53l4-5a5.07 5.07 0 0 1 3.8-1.8zm-.24-5.9a11.08 11.08 0 0 0-7 2.54 14.41 14.41 0 0 0-3 3.84 13.62 13.62 0 0 1-2.85 3.16l-1.26 1.05a1.1 1.1 0 0 1-1.26 0 .77.77 0 0 1-.31-1 2 2 0 0 1 .72-.77A15.35 15.35 0 0 0 13.17 19c.47-.7.8-1.5 1.27-2.2a10.72 10.72 0 0 1 3.9-3.39 12.72 12.72 0 0 1 7.28-1.46 12.53 12.53 0 0 1 5.64 1.89A13.2 13.2 0 0 1 37.37 23a12.73 12.73 0 0 1 0 4 1.08 1.08 0 0 1-.76.91 1 1 0 0 1-1.05-.35.73.73 0 0 1-.13-.73 10.45 10.45 0 0 0-1.22-7.45 11 11 0 0 0-6.37-5.07 10.06 10.06 0 0 0-3.34-.48z" fill="#010101"/><path d="M49.42 24.7a24.7 24.7 0 0 1-3.24 12.55A20.65 20.65 0 0 1 43.5 41l-.78.86a1.12 1.12 0 0 1-1.42.08 1.25 1.25 0 0 1-.36-1.31 1.55 1.55 0 0 1 .31-.54A19.43 19.43 0 0 0 45 34.71a21.39 21.39 0 0 0 1.93-6.2 21.74 21.74 0 0 0 .27-4.69 23.08 23.08 0 0 0-1.66-7.37 22.23 22.23 0 0 0-2.56-4.66 1.2 1.2 0 0 1 .18-1.5 1.06 1.06 0 0 1 1.51.07 9.56 9.56 0 0 1 1.35 2 24.87 24.87 0 0 1 3.26 9.7 18.3 18.3 0 0 1 .14 2.63z" fill="#2fac66"/><path d="M33.64 25a9.17 9.17 0 0 1-2.05 5.79 43.08 43.08 0 0 1-5.17 6c-1.34 1.28-2.8 2.43-4.25 3.58A60.55 60.55 0 0 1 17 44.1a35.83 35.83 0 0 1-3.46 2 .85.85 0 0 1-1.18-.31.91.91 0 0 1 .32-1.22l1.68-.93a39.72 39.72 0 0 0 4.75-3.18l4.93-4.12a60.92 60.92 0 0 0 4.49-4.6 17.49 17.49 0 0 0 2.11-2.81 7.11 7.11 0 0 0 1-4.54 7.41 7.41 0 0 0-2.35-4.66 7.63 7.63 0 0 0-1.84-1.24.83.83 0 0 1-.53-.79.81.81 0 0 1 .5-.75 1.46 1.46 0 0 1 1.17.12 8.49 8.49 0 0 1 4.79 6.13l.18.93.08.87z" fill="#1d1d1b"/><path d="M41.5 24.78a17.16 17.16 0 0 1-2.16 8.34 27.62 27.62 0 0 1-3 4.27l-2.86 3.18-3.74 3.8a56.87 56.87 0 0 1-5.53 4.76.94.94 0 0 1-1.3-.1.92.92 0 0 1 .06-1.3c.63-.68 1.43-1.16 2.1-1.8s1.2-1 1.77-1.5l5-4.93C33 38.34 34 37.06 35 35.82a29.42 29.42 0 0 0 2.68-3.69 12.73 12.73 0 0 0 1.68-4.71l.2-2a15.06 15.06 0 0 0-.64-4.81 1 1 0 0 1 .67-1.27 1 1 0 0 1 1.23.72 15.21 15.21 0 0 1 .61 3l.06 1.72zM28.7 6.2l-2.73-.32a15 15 0 0 0-2.22 0l-2.58.3a17.65 17.65 0 0 0-3.86 1.13 18.57 18.57 0 0 0-5 3.13 23 23 0 0 0-3.6 4.22A19.83 19.83 0 0 1 5.59 18a21.07 21.07 0 0 1-3.06 2.35l-.85.45a.93.93 0 0 1-1.17-.32.88.88 0 0 1 .31-1.21l2.44-1.7a17.26 17.26 0 0 0 4.11-4.53 19.58 19.58 0 0 1 5.47-5.6A19.39 19.39 0 0 1 17.64 5a23.91 23.91 0 0 1 3.9-1 17.33 17.33 0 0 1 3-.23 15.75 15.75 0 0 1 4.53.54c.6.18.88.55.8 1s-.4.88-1.17.88zM24.25 0a23.7 23.7 0 0 1 7.65 1.15A25.24 25.24 0 0 1 39.42 5 19.1 19.1 0 0 1 42 7.29a1.05 1.05 0 0 1 0 1.51 1 1 0 0 1-1.56.08 23.06 23.06 0 0 0-11.61-6.22 22.42 22.42 0 0 0-6-.36 19 19 0 0 0-5.71 1.18 1.11 1.11 0 0 1-1.4-.6 1.07 1.07 0 0 1 .44-1.41 11.44 11.44 0 0 1 3.1-.94A19.42 19.42 0 0 1 24.25 0zM24 16c.2 0 .4-.05.62.05a1 1 0 0 1 .61.94.93.93 0 0 1-.94.86 6.94 6.94 0 0 0-4.63 2.07 32.76 32.76 0 0 0-5.14 5.95 13.19 13.19 0 0 1-3.26 3.06 34.92 34.92 0 0 1-8.46 4.24c-.86.3-1.58-.26-1.4-1.05a1.28 1.28 0 0 1 1-.92 24.51 24.51 0 0 0 7.76-3.68 16.77 16.77 0 0 0 3.94-4.16A27.69 27.69 0 0 1 17.82 19a9.82 9.82 0 0 1 5-2.81A3 3 0 0 1 24 16z" fill="#010101"/><path d="M17.43 48.24a.7.7 0 0 1-.7-.62.83.83 0 0 1 .43-.94l2.38-1.54L23.67 42a46.47 46.47 0 0 0 3.46-3.11A50 50 0 0 0 34 30.51l.55-1a.79.79 0 0 1 1.24-.35.91.91 0 0 1 .54 1.26 18.44 18.44 0 0 1-2.41 3.75A63 63 0 0 1 28 40.46a44.16 44.16 0 0 1-8.62 6.71l-1.56.93a.51.51 0 0 1-.39.14z" fill="#2fac66"/><path d="M25.9 24.47c.1.54-.3.88-.56 1.24l-4.2 5.22a31.2 31.2 0 0 1-5 4.35 20.36 20.36 0 0 1-3 1.85 1.22 1.22 0 0 1-1.25 0 1 1 0 0 1 .29-1.74 15.12 15.12 0 0 0 2.72-1.52 34.67 34.67 0 0 0 2.72-2.15 37.79 37.79 0 0 0 5.67-6.63 7.4 7.4 0 0 1 1-1.27.87.87 0 0 1 1-.17c.4.14.72.35.6.82z" fill="#010101"/><path d="M14.7 3.66a1.23 1.23 0 0 1-.58 1.07A26.72 26.72 0 0 0 10.47 7a19.89 19.89 0 0 0-4 4.06 36.06 36.06 0 0 0-2.16 3.44 1 1 0 0 1-1.81.17 1.1 1.1 0 0 1 0-1.33A24.45 24.45 0 0 1 4.62 10a22.45 22.45 0 0 1 2.8-3.21 24.83 24.83 0 0 1 4.86-3.59 2.58 2.58 0 0 1 1.26-.54 1.23 1.23 0 0 1 1.16 1z" fill="#2fac66"/><path d="M8.46 42.6a1 1 0 0 1 .74-1 30 30 0 0 0 3-1.44 39.87 39.87 0 0 0 6-3.81 3 3 0 0 0 .31-.31.81.81 0 0 1 1.2-.07.91.91 0 0 1 0 1.26 18 18 0 0 1-3.32 2.71 45.38 45.38 0 0 1-5.78 3.23 4.76 4.76 0 0 1-1 .35.91.91 0 0 1-1.15-.92z" fill="#010101"/><path d="M35.2 44.4c.1.24-.1.42-.24.57a21.85 21.85 0 0 1-3.78 3.6 1 1 0 0 1-1.62-.57.9.9 0 0 1 .35-1 23.64 23.64 0 0 0 2.63-2.57 9.08 9.08 0 0 1 1-.87 1 1 0 0 1 1.14-.07.82.82 0 0 1 .52.91z" fill="#1d1d1b"/><path d="M.32 28.4A1 1 0 0 1 1 27.36l2.1-.8a23.6 23.6 0 0 1 2.45-1 1 1 0 0 1 1.31.54.77.77 0 0 1-.34 1.06 20.9 20.9 0 0 1-5 2.1.91.91 0 0 1-1.2-.84zM5.12 39a.93.93 0 0 1 .7-.81c1.1-.3 2.1-.83 3.18-1.2.56-.17 1 .06 1.24.67.17.42 0 .77-.48 1a9.86 9.86 0 0 1-3.45 1.35A1 1 0 0 1 5.12 39z" fill="#2fac66"/></svg>