<svg xmlns="http://www.w3.org/2000/svg" viewBox="0 0 210.68 49.33"><text transform="translate(62.6 37.23)" font-size="38" fill="#1d1d1b" font-family="SourceSansPro-Regular, Source Sans Pro" letter-spacing="-0.03em">OpenAFIS</text><path d="M24.4,8a16.86,16.86,0,0,1,10.22,3.31A17.34,17.34,0,0,1,39,16c.38.6.31,1.11-.2,1.44a1,1,0,0,1-1.52-.36A14.63,14.63,0,0,0,25.17,10a14.59,14.59,0,0,0-5.29.7,14.06,14.06,0,0,0-6.15,4c-.74.82-1.37,1.74-2,2.63-.82,1.08-1.7,2.13-2.59,3.17a20.12,20.12,0,0,1-6.81,4.78,3.29,3.29,0,0,1-1.12.42A1,1,0,0,1,0,25.05,1.07,1.07,0,0,1,.61,23.8a32.61,32.61,0,0,0,3-1.52A19.52,19.52,0,0,0,6.73,20,19,19,0,0,0,10.2,16a18.35,18.35,0,0,1,5.72-5.58,15.43,15.43,0,0,1,5.71-2.14A16.2,16.2,0,0,1,24.4,8Z" fill="#010101"/><path d="M45.21,23.48a24.9,24.9,0,0,1-1.9,9.65,35.5,35.5,0,0,1-3.58,6.72A38.23,38.23,0,0,1,37.35,43a1,1,0,1,1-1.46-1.27,35.27,35.27,0,0,0,3.62-5.2,32.45,32.45,0,0,0,2.78-6.37A28.1,28.1,0,0,0,43.17,26a15.13,15.13,0,0,0,.14-2.22,16.91,16.91,0,0,0-1.2-6.43,17.71,17.71,0,0,0-4.67-6.5A21,21,0,0,0,32,7.26a.94.94,0,0,1-.29-1.67,1,1,0,0,1,1-.1,21,21,0,0,1,4.82,2.87,20.87,20.87,0,0,1,4.83,5.22,17.54,17.54,0,0,1,2.57,6.66A17.52,17.52,0,0,1,45.21,23.48Z" fill="#1d1d1b"/><path d="M24.74,19.72a5.12,5.12,0,0,1,4.9,4.16,5.81,5.81,0,0,1-.75,3.59,21.54,21.54,0,0,1-3.45,4.33c-.87.9-1.7,1.84-2.56,2.74a.93.93,0,0,1-1.44.07,1,1,0,0,1,0-1.49c.58-.6,1.19-1.17,1.76-1.77a38.62,38.62,0,0,0,3.94-4.54,3.34,3.34,0,0,0,.68-3,3.17,3.17,0,0,0-2.54-2.31,3,3,0,0,0-3,1.17c-.7.86-1.43,1.71-2.13,2.57q-1.65,2-3.33,4a18,18,0,0,1-5,4.19A54.47,54.47,0,0,1,5.92,36.4,13.79,13.79,0,0,1,4.24,37a.9.9,0,0,1-1.08-.49,1,1,0,0,1,.71-1.26,23.75,23.75,0,0,0,8.5-4.2,28,28,0,0,0,4.57-4.53c1.34-1.69,2.68-3.37,4-5A5.07,5.07,0,0,1,24.74,19.72Z" fill="#010101"/><path d="M24.5,13.83a11.08,11.08,0,0,0-7,2.54,14.41,14.41,0,0,0-3,3.84,13.62,13.62,0,0,1-2.85,3.16l-1.26,1.05a1.1,1.1,0,0,1-1.26,0,.77.77,0,0,1-.31-1,2,2,0,0,1,.72-.77A15.35,15.35,0,0,0,13.17,19c.47-.71.8-1.5,1.27-2.2a10.72,10.72,0,0,1,3.9-3.39,12.72,12.72,0,0,1,7.28-1.46,12.53,12.53,0,0,1,5.64,1.89A13.2,13.2,0,0,1,37.37,23a12.73,12.73,0,0,1,0,4,1.08,1.08,0,0,1-.76.91,1,1,0,0,1-1.05-.35.73.73,0,0,1-.13-.73,10.45,10.45,0,0,0-1.22-7.45,11,11,0,0,0-6.37-5.07A10.06,10.06,0,0,0,24.5,13.83Z" fill="#010101"/><path d="M49.42,24.69a24.7,24.7,0,0,1-3.24,12.55A20.65,20.65,0,0,1,43.5,41c-.27.29-.5.6-.78.86a1.12,1.12,0,0,1-1.42.08,1.25,1.25,0,0,1-.36-1.31,1.55,1.55,0,0,1,.31-.54A19.43,19.43,0,0,0,45,34.71a21.39,21.39,0,0,0,1.93-6.2,21.74,21.74,0,0,0,.27-4.69,23.08,23.08,0,0,0-1.66-7.37,22.23,22.23,0,0,0-2.56-4.66,1.2,1.2,0,0,1,.18-1.5,1.06,1.06,0,0,1,1.51.07,9.56,9.56,0,0,1,1.35,2,24.87,24.87,0,0,1,3.26,9.7A18.3,18.3,0,0,1,49.42,24.69Z" fill="#2fac66"/><path d="M33.64,25a9.17,9.17,0,0,1-2.05,5.79,43.08,43.08,0,0,1-5.17,6c-1.34,1.28-2.79,2.43-4.25,3.58A60.55,60.55,0,0,1,17,44.1a35.83,35.83,0,0,1-3.46,2,.85.85,0,0,1-1.18-.31.91.91,0,0,1,.32-1.22c.54-.33,1.12-.62,1.68-.93a39.72,39.72,0,0,0,4.75-3.18c1.7-1.3,3.36-2.65,4.93-4.12a60.92,60.92,0,0,0,4.49-4.6,17.49,17.49,0,0,0,2.11-2.81,7.11,7.11,0,0,0,1-4.54,7.41,7.41,0,0,0-2.35-4.66,7.63,7.63,0,0,0-1.84-1.24.83.83,0,0,1-.53-.79.81.81,0,0,1,.5-.75,1.46,1.46,0,0,1,1.17.12,8.49,8.49,0,0,1,4.79,6.13c.06.31.15.62.18.93S33.64,24.76,33.64,25Z" fill="#1d1d1b"/><path d="M41.49,24.78a17.16,17.16,0,0,1-2.16,8.34,27.62,27.62,0,0,1-3,4.27c-.92,1.09-1.91,2.12-2.86,3.18-1.2,1.31-2.46,2.56-3.74,3.79a56.87,56.87,0,0,1-5.53,4.76.94.94,0,0,1-1.3-.1.92.92,0,0,1,.06-1.3c.63-.68,1.43-1.16,2.1-1.79s1.19-1,1.77-1.5c1.75-1.57,3.39-3.24,5-4.93C33,38.34,34,37.06,35,35.82a29.42,29.42,0,0,0,2.68-3.69,12.73,12.73,0,0,0,1.68-4.71c.09-.65.17-1.3.2-2a15.06,15.06,0,0,0-.64-4.81,1,1,0,0,1,.67-1.27,1,1,0,0,1,1.23.72,15.21,15.21,0,0,1,.61,3C41.45,23.64,41.46,24.21,41.49,24.78Z" fill="#010101"/><path d="M28.7,6.19c-.81-.12-1.76-.27-2.73-.32a15,15,0,0,0-2.22,0c-.87.08-1.72.17-2.58.3A17.65,17.65,0,0,0,17.31,7.3a18.57,18.57,0,0,0-5,3.13,23,23,0,0,0-3.6,4.22A19.83,19.83,0,0,1,5.59,18a21.07,21.07,0,0,1-3.06,2.35c-.28.16-.56.31-.85.45a.93.93,0,0,1-1.17-.32.88.88,0,0,1,.31-1.21c.82-.56,1.66-1.1,2.44-1.71a17.26,17.26,0,0,0,4.11-4.53,19.58,19.58,0,0,1,5.47-5.6A19.39,19.39,0,0,1,17.64,5a23.91,23.91,0,0,1,3.9-1,17.33,17.33,0,0,1,3-.23,15.75,15.75,0,0,1,4.53.54c.6.18.88.55.8,1S29.47,6.19,28.7,6.19Z" fill="#010101"/><path d="M24.25,0A23.7,23.7,0,0,1,31.9,1.15,25.24,25.24,0,0,1,39.42,5,19.1,19.1,0,0,1,42,7.29a1.05,1.05,0,0,1,0,1.51,1,1,0,0,1-1.56.08A23.06,23.06,0,0,0,28.83,2.66a22.42,22.42,0,0,0-6-.36,19,19,0,0,0-5.71,1.18,1.11,1.11,0,0,1-1.4-.6,1.07,1.07,0,0,1,.44-1.41,11.44,11.44,0,0,1,3.1-.94A19.42,19.42,0,0,1,24.25,0Z" fill="#010101"/><path d="M24,16c.21,0,.41-.05.62.05a1,1,0,0,1,.61.94.93.93,0,0,1-.94.86,6.94,6.94,0,0,0-4.63,2.07,32.76,32.76,0,0,0-5.14,5.95,13.19,13.19,0,0,1-3.26,3.06,34.92,34.92,0,0,1-8.46,4.24c-.86.29-1.58-.26-1.4-1.05a1.28,1.28,0,0,1,1-.92,24.51,24.51,0,0,0,7.76-3.68,16.77,16.77,0,0,0,3.94-4.16A27.69,27.69,0,0,1,17.82,19a9.82,9.82,0,0,1,5-2.81A3,3,0,0,1,24,16Z" fill="#010101"/><path d="M17.43,48.24a.7.7,0,0,1-.7-.62.83.83,0,0,1,.43-.94c.8-.51,1.6-1,2.38-1.54,1.43-1,2.8-2,4.13-3.14a46.47,46.47,0,0,0,3.46-3.11A50,50,0,0,0,34,30.51c.19-.31.36-.63.55-1a.79.79,0,0,1,1.24-.35.91.91,0,0,1,.54,1.26,18.44,18.44,0,0,1-2.41,3.75A63,63,0,0,1,28,40.46a44.16,44.16,0,0,1-8.62,6.71c-.53.3-1,.63-1.56.93A.51.51,0,0,1,17.43,48.24Z" fill="#2fac66"/><path d="M25.89,24.47c.09.54-.3.88-.56,1.24-1.36,1.77-2.72,3.54-4.2,5.22a31.2,31.2,0,0,1-5,4.35,20.36,20.36,0,0,1-3,1.85,1.22,1.22,0,0,1-1.25,0,1,1,0,0,1,.29-1.74,15.12,15.12,0,0,0,2.72-1.52,34.67,34.67,0,0,0,2.72-2.15,37.79,37.79,0,0,0,5.67-6.63,7.4,7.4,0,0,1,1-1.27.87.87,0,0,1,1-.17C25.69,23.79,26,24,25.89,24.47Z" fill="#010101"/><path d="M14.7,3.66a1.23,1.23,0,0,1-.58,1.07A26.72,26.72,0,0,0,10.47,7a19.89,19.89,0,0,0-4,4.06,36.06,36.06,0,0,0-2.16,3.44,1,1,0,0,1-1.81.17,1.1,1.1,0,0,1,0-1.33A24.45,24.45,0,0,1,4.62,10a22.45,22.45,0,0,1,2.8-3.21A24.83,24.83,0,0,1,12.28,3.2a2.58,2.58,0,0,1,1.26-.54A1.23,1.23,0,0,1,14.7,3.66Z" fill="#2fac66"/><path d="M8.46,42.6a1,1,0,0,1,.74-1,30,30,0,0,0,3-1.44,39.87,39.87,0,0,0,6-3.81,3,3,0,0,0,.31-.31.81.81,0,0,1,1.2-.07.91.91,0,0,1,0,1.26,18,18,0,0,1-3.32,2.71,45.38,45.38,0,0,1-5.78,3.23,4.76,4.76,0,0,1-1,.35A.91.91,0,0,1,8.46,42.6Z" fill="#010101"/><path d="M35.21,44.4c.09.24-.1.42-.24.57a21.85,21.85,0,0,1-3.78,3.6A1,1,0,0,1,29.57,48a.9.9,0,0,1,.35-1,23.64,23.64,0,0,0,2.63-2.57,9.08,9.08,0,0,1,1-.87,1,1,0,0,1,1.14-.07A.82.82,0,0,1,35.21,44.4Z" fill="#1d1d1b"/><path d="M.32,28.41A1,1,0,0,1,1,27.36c.7-.29,1.42-.49,2.1-.81a23.6,23.6,0,0,1,2.45-1,1,1,0,0,1,1.31.54.77.77,0,0,1-.34,1.06,20.9,20.9,0,0,1-5,2.1A.91.91,0,0,1,.32,28.41Z" fill="#2fac66"/><path d="M5.12,39a.93.93,0,0,1,.7-.81C6.91,37.89,7.92,37.36,9,37c.56-.17,1,.06,1.24.67.17.42,0,.77-.48,1a9.86,9.86,0,0,1-3.45,1.35A1,1,0,0,1,5.12,39Z" fill="#2fac66"/></svg>